<svg width="35" height="35" viewBox="0 0 35 35" fill="none" xmlns="http://www.w3.org/2000/svg">
<path d="M31.6604 29.5897C31.9365 29.8635 32.0918 30.2363 32.0918 30.6251C32.0918 31.0139 31.9365 31.3867 31.6604 31.6605C31.3866 31.9366 31.0138 32.0919 30.625 32.0919C30.2361 32.0919 29.8634 31.9366 29.5896 31.6605L17.5 19.5564L5.41041 31.6605C5.13658 31.9366 4.76384 32.0919 4.37499 32.0919C3.98615 32.0919 3.6134 31.9366 3.33958 31.6605C3.06349 31.3867 2.9082 31.0139 2.9082 30.6251C2.9082 30.2363 3.06349 29.8635 3.33958 29.5897L15.4437 17.5001L3.33958 5.41052C2.96966 5.0406 2.82519 4.50143 2.96059 3.99611C3.09599 3.49079 3.49069 3.09609 3.996 2.96069C4.50132 2.8253 5.04049 2.96976 5.41041 3.33968L17.5 15.4439L29.5896 3.33968C30.1614 2.76784 31.0886 2.76784 31.6604 3.33968C32.2323 3.91153 32.2323 4.83867 31.6604 5.41052L19.5562 17.5001L31.6604 29.5897Z" fill="#231F20"/>
</svg>
