<svg width="50" height="61" viewBox="0 0 100 112" fill="none" xmlns="http://www.w3.org/2000/svg">
<g clip-path="url(#clip0_435_233)">
<path d="M87.5003 23.1608C82.8753 21.5396 77.792 20.8447 72.917 20.8447C64.792 20.8447 56.042 22.6976 50.0003 27.7931C43.9587 22.6976 35.2087 20.8447 27.0837 20.8447C18.9587 20.8447 10.2087 22.6976 4.16699 27.7931V95.655C4.16699 96.8131 5.20866 97.9711 6.25033 97.9711C6.66699 97.9711 6.87533 97.7395 7.29199 97.7395C12.917 94.7286 21.042 92.6441 27.0837 92.6441C35.2087 92.6441 43.9587 94.497 50.0003 99.5924C55.6253 95.655 65.8336 92.6441 72.917 92.6441C79.792 92.6441 86.8753 94.0337 92.7086 97.5079C93.1253 97.7395 93.3336 97.7395 93.7503 97.7395C94.792 97.7395 95.8336 96.5815 95.8336 95.4234V27.7931C93.3336 25.7086 90.6253 24.3189 87.5003 23.1608ZM87.5003 85.6957C82.917 84.0745 77.917 83.3796 72.917 83.3796C65.8336 83.3796 55.6253 86.3906 50.0003 90.328V37.0575C55.6253 33.1201 65.8336 30.1092 72.917 30.1092C77.917 30.1092 82.917 30.804 87.5003 32.4253V85.6957Z" fill="#FF0000"/>
<path d="M72.917 48.6378C76.5837 48.6378 80.1253 49.0547 83.3336 49.8422V42.8012C80.042 42.1064 76.5003 41.6895 72.917 41.6895C65.8337 41.6895 59.417 43.0328 54.167 45.5342V53.2237C58.8753 50.2591 65.417 48.6378 72.917 48.6378Z" fill="#FF0000"/>
<path d="M54.167 57.8565V65.5459C58.8753 62.5813 65.417 60.96 72.917 60.96C76.5837 60.96 80.1253 61.3769 83.3336 62.1644V55.1234C80.042 54.4286 76.5003 54.0117 72.917 54.0117C65.8337 54.0117 59.417 55.4014 54.167 57.8565Z" fill="#FF0000"/>
<path d="M72.917 66.3789C65.8337 66.3789 59.417 67.7222 54.167 70.2236V77.9131C58.8753 74.9485 65.417 73.3272 72.917 73.3272C76.5837 73.3272 80.1253 73.7441 83.3336 74.5316V67.4906C80.042 66.7495 76.5003 66.3789 72.917 66.3789Z" fill="#FF0000"/>
</g>
<defs>
<clipPath id="clip0_435_233">
<rect width="100" height="111.173" fill="white"/>
</clipPath>
</defs>
</svg>
